ModelForces
version=1
nRows=4
nColumns=158
inDegrees=no

This file contains the forces exerted on a model during a simulation.

A force is a generalized force, meaning that it can be either a force (N) or a torque (Nm).

Units are S.I. units (second, meters, Newtons, ...)
Angles are in degrees.

endheader
time	glut_med1_r	glut_med2_r	glut_med3_r	glut_min1_r	glut_min2_r	glut_min3_r	semimem_r	semiten_r	bifemlh_r	bifemsh_r	sar_r	add_long_r	add_brev_r	add_mag1_r	add_mag2_r	add_mag3_r	tfl_r	pect_r	grac_r	glut_max1_r	glut_max2_r	glut_max3_r	iliacus_r	psoas_r	quad_fem_r	gem_r	peri_r	rect_fem_r	vas_med_r	vas_int_r	vas_lat_r	med_gas_r	lat_gas_r	soleus_r	tib_post_r	flex_dig_r	flex_hal_r	tib_ant_r	per_brev_r	per_long_r	per_tert_r	ext_dig_r	ext_hal_r	glut_med1_l	glut_med2_l	glut_med3_l	glut_min1_l	glut_min2_l	glut_min3_l	semimem_l	semiten_l	bifemlh_l	bifemsh_l	sar_l	add_long_l	add_brev_l	add_mag1_l	add_mag2_l	add_mag3_l	tfl_l	pect_l	grac_l	glut_max1_l	glut_max2_l	glut_max3_l	iliacus_l	psoas_l	quad_fem_l	gem_l	peri_l	rect_fem_l	vas_med_l	vas_int_l	vas_lat_l	med_gas_l	lat_gas_l	soleus_l	tib_post_l	flex_dig_l	flex_hal_l	tib_ant_l	per_brev_l	per_long_l	per_tert_l	ext_dig_l	ext_hal_l	ercspn_r	ercspn_l	intobl_r	intobl_l	extobl_r	extobl_l	femur_lat_meniscii_r.femur_lat_r.force.X	femur_lat_meniscii_r.femur_lat_r.force.Y	femur_lat_meniscii_r.femur_lat_r.force.Z	femur_lat_meniscii_r.femur_lat_r.torque.X	femur_lat_meniscii_r.femur_lat_r.torque.Y	femur_lat_meniscii_r.femur_lat_r.torque.Z	femur_lat_meniscii_r.meniscus_lat_r.force.X	femur_lat_meniscii_r.meniscus_lat_r.force.Y	femur_lat_meniscii_r.meniscus_lat_r.force.Z	femur_lat_meniscii_r.meniscus_lat_r.torque.X	femur_lat_meniscii_r.meniscus_lat_r.torque.Y	femur_lat_meniscii_r.meniscus_lat_r.torque.Z	femur_med_meniscii_r.femur_med_r.force.X	femur_med_meniscii_r.femur_med_r.force.Y	femur_med_meniscii_r.femur_med_r.force.Z	femur_med_meniscii_r.femur_med_r.torque.X	femur_med_meniscii_r.femur_med_r.torque.Y	femur_med_meniscii_r.femur_med_r.torque.Z	femur_med_meniscii_r.meniscus_med_r.force.X	femur_med_meniscii_r.meniscus_med_r.force.Y	femur_med_meniscii_r.meniscus_med_r.force.Z	femur_med_meniscii_r.meniscus_med_r.torque.X	femur_med_meniscii_r.meniscus_med_r.torque.Y	femur_med_meniscii_r.meniscus_med_r.torque.Z	femur_med_tibia_r.tibia_upper_r.force.X	femur_med_tibia_r.tibia_upper_r.force.Y	femur_med_tibia_r.tibia_upper_r.force.Z	femur_med_tibia_r.tibia_upper_r.torque.X	femur_med_tibia_r.tibia_upper_r.torque.Y	femur_med_tibia_r.tibia_upper_r.torque.Z	femur_med_tibia_r.femur_med_r.force.X	femur_med_tibia_r.femur_med_r.force.Y	femur_med_tibia_r.femur_med_r.force.Z	femur_med_tibia_r.femur_med_r.torque.X	femur_med_tibia_r.femur_med_r.torque.Y	femur_med_tibia_r.femur_med_r.torque.Z	femur_lat_tibia_r.tibia_upper_r.force.X	femur_lat_tibia_r.tibia_upper_r.force.Y	femur_lat_tibia_r.tibia_upper_r.force.Z	femur_lat_tibia_r.tibia_upper_r.torque.X	femur_lat_tibia_r.tibia_upper_r.torque.Y	femur_lat_tibia_r.tibia_upper_r.torque.Z	femur_lat_tibia_r.femur_lat_r.force.X	femur_lat_tibia_r.femur_lat_r.force.Y	femur_lat_tibia_r.femur_lat_r.force.Z	femur_lat_tibia_r.femur_lat_r.torque.X	femur_lat_tibia_r.femur_lat_r.torque.Y	femur_lat_tibia_r.femur_lat_r.torque.Z	aACL_R	pACL_R	aPCL_R	pPCL_R	aMCL_R	mMCL_R	pMCL_R	aLCL_R	mLCL_R	pLCL_R	aPCL_L	pPCL_L	aMCL_L	aLCL_L	ground_prescribedForce_-40_fx	ground_prescribedForce_-40_fy	ground_prescribedForce_-40_fz
      0.26300737	      8.62453059	      6.40492702	      6.86641894	      2.99021464	      3.53795249	      3.64708126	      3.80052676	      4.55501759	      6.80234540	      7.63764607	      1.70913234	      6.35475927	      4.65200252	      3.29692908	      2.77958302	      4.57598831	      4.31633233	      2.51955673	      1.70565688	      4.13299576	      6.28304920	      4.70059886	     23.99085619	     14.48307021	      4.08901676	      3.07234634	      4.90850852	     19.89020511	     13.83424621	     14.79101421	     20.26496535	      1.76291293	      1.20221486	     10.15742553	      9.35654626	      2.74428347	      2.19184261	     14.51912928	      4.76622844	     10.44525061	      5.23372853	      6.16500679	      2.46452851	      8.62453059	      6.40492702	      6.86641894	      2.99021464	      3.53795249	      3.64708126	     10.29245022	      4.65981671	      8.97830882	      8.13661972	      1.70816747	      6.35475927	      4.65200252	      3.29692908	      2.77958302	      4.57598831	      4.46150442	      2.51955673	      1.75553736	      4.13299576	      6.28304920	      4.70059886	     23.99085619	     14.48307021	      4.08901676	      3.07234634	      4.90850852	     12.43338679	      7.47483653	      8.59484148	      9.23646160	     17.24404390	      8.00877093	     37.30828584	     44.85935131	      3.40541232	      3.52562769	      9.78590481	      5.11900201	     14.21989253	      2.24068754	      6.28290907	      1.97896708	     28.12972458	     28.12972458	     10.23013980	     10.23013980	     27.91004610	     27.91004610	     78.16214229	     66.15990056	     17.47432589	     -8.77659386	      1.91115880	     32.11915733	    -78.16214229	    -66.15990056	    -17.47432589	      2.21093404	     -2.37389436	     -0.99918285	    116.14094657	     47.53739018	      1.60406827	      0.36719947	     -2.48216972	     47.37862749	   -116.14094657	    -47.53739018	     -1.60406827	     -0.86867239	      2.17367394	     -1.92755388	    -26.07794867	    -26.19576379	      6.24016933	     -0.57685156	      0.49201013	     -0.34032912	     26.07794867	     26.19576379	     -6.24016933	      3.04311151	     -0.45857081	     10.78731628	      0.00000000	      0.00000000	      0.00000000	      0.00000000	      0.00000000	      0.00000000	      0.00000000	      0.00000000	      0.00000000	      0.00000000	      0.00000000	      0.00000000	     47.47230020	     15.26276158	    110.95783514	     37.16961073	      0.00000000	      0.00000000	      0.00000000	      0.00000000	      0.00000000	      0.00000000	      0.00000000	      0.00000000	      0.00000001	      0.00000000	     84.26488000	    -70.70660000	      0.00000000
      0.26430017	      8.60652739	      6.39260392	      6.85304327	      2.98470518	      3.53197109	      3.63948535	      3.79249104	      4.54387506	      6.77142870	      7.62034079	      1.70758313	      6.34238834	      4.64350989	      3.29062702	      2.77414220	      4.56613982	      4.31095710	      2.51488382	      1.70338307	      4.12503876	      6.27091820	      4.69136159	     23.96840985	     14.45764835	      4.08131768	      3.06868864	      4.89535137	     19.85025544	     13.80080859	     14.75222265	     20.20107472	      1.75843132	      1.20019516	     10.14849834	      9.31552280	      2.75739056	      2.17147500	     14.48311746	      4.76786757	     10.43580587	      6.74426601	      6.12746607	      2.47394599	      8.60652739	      6.39260392	      6.85304327	      2.98470518	      3.53197109	      3.63948535	     10.26689789	      4.65017777	      8.95680207	      8.12128767	      1.70503457	      6.34238834	      4.64350989	      3.29062702	      2.77414220	      4.56613982	      4.45540159	      2.51488382	      1.75226136	      4.12503876	      6.27091820	      4.69136159	     23.96840985	     14.45764835	      4.08131768	      3.06868864	      4.89535137	     12.40401834	      7.46008991	      8.57756654	      9.21796817	     17.19386538	      7.98544018	     37.20811809	     44.81828202	      3.39482084	      3.51584031	      9.76364233	      5.10609432	     14.19171699	      2.23675680	      6.26507767	      1.97349867	     28.07777795	     28.07777795	     10.20959503	     10.20959503	     27.89157113	     27.89157113	     78.58096421	     66.92017933	     17.60028717	     -8.84669610	      1.92217106	     32.28971452	    -78.58096421	    -66.92017933	    -17.60028717	      2.23469063	     -2.38833054	     -0.99629095	    115.99703749	     47.50103172	      1.48506951	      0.41513476	     -2.47921481	     47.31912776	   -115.99703749	    -47.50103172	     -1.48506951	     -0.87063022	      2.17228328	     -1.92348331	    -25.41160833	    -25.52840837	      6.00469517	     -0.55967372	      0.47784285	     -0.33170405	     25.41160833	     25.52840837	     -6.00469517	      2.93381981	     -0.44657767	     10.51190791	      0.00000000	      0.00000000	      0.00000000	      0.00000000	      0.00000000	      0.00000000	      0.00000000	      0.00000000	      0.00000000	      0.00000000	      0.00000000	      0.00000000	     47.67612306	     15.39306326	    110.95559475	     37.02456301	      0.00000000	      0.00000000	      0.00000000	      0.00000000	      0.00000000	      0.00000000	      0.00000000	      0.00000000	      0.00000001	      0.00000000	     84.26488000	    -70.70660000	      0.00000000
      0.26642669	      8.57757104	      6.37278118	      6.83152803	      2.97584216	      3.52234928	      3.62726797	      3.77543478	      4.52344538	      6.71918135	      7.57609891	      1.70155272	      6.32248928	      4.62984806	      3.28048964	      2.76539073	      4.55029982	      4.30065970	      2.50736654	      1.69723167	      4.11223969	      6.25140518	      4.67650365	     23.93230672	     14.41676437	      4.06893251	      3.06280645	      4.87416367	     19.77940771	     13.73287959	     14.67465808	     20.08315054	      1.74095166	      1.19342381	     10.12990747	      9.25395800	      2.77570293	      2.13601463	     14.42974759	      4.76701274	     10.41705126	      7.60693506	      6.08251529	      2.49173346	      8.57757104	      6.37278118	      6.83152803	      2.97584216	      3.52234928	      3.62726797	     10.22577976	      4.63467435	      8.92220038	      8.09662380	      1.69999485	      6.32248928	      4.62984806	      3.28048964	      2.76539073	      4.55029982	      4.44558603	      2.50736654	      1.74699130	      4.11223969	      6.25140518	      4.67650365	     23.93230672	     14.41676437	      4.06893251	      3.06280645	      4.87416367	     12.35677088	      7.43637146	      8.54978245	      9.18822488	     17.11296896	      7.94782741	     37.04681912	     44.75219307	      3.37775139	      3.50007617	      9.72783172	      5.08532127	     14.14633869	      2.23043494	      6.23636677	      1.96469823	     27.99421146	     27.99421146	     10.17654950	     10.17654950	     27.86185602	     27.86185602	     79.64397315	     67.84633680	     17.92676670	     -9.00104052	      1.94649041	     32.72580640	    -79.64397315	    -67.84633680	    -17.92676670	      2.26611295	     -2.42107962	     -1.00812191	    115.83502176	     47.52739233	      1.37952569	      0.45873051	     -2.47463228	     47.25122602	   -115.83502176	    -47.52739233	     -1.37952569	     -0.87310412	      2.16867922	     -1.91671159	    -24.63530651	    -24.71124376	      5.89902297	     -0.54485188	      0.46504772	     -0.32266421	     24.63530651	     24.71124376	     -5.89902297	      2.87658247	     -0.43374604	     10.19148515	      0.00000000	      0.00000000	      0.00000000	      0.00000000	      0.00000000	      0.00000000	      0.00000000	      0.00000000	      0.00000000	      0.00000000	      0.00000000	      0.00000000	     47.96017219	     15.55400653	    110.88793837	     36.75583380	      0.00000000	      0.00000000	      0.00000000	      0.00000000	      0.00000000	      0.00000000	      0.00000000	      0.00000000	      0.00000001	      0.00000000	     84.26488000	    -70.70660000	      0.00000000
      0.27079028	      8.52062471	      6.33378894	      6.78920896	      2.95840622	      3.50342196	      3.60324054	      3.73306431	      4.47740983	      6.61604685	      7.48412293	      1.68574007	      6.28334914	      4.60297760	      3.26054907	      2.74817820	      4.51914959	      4.27661165	      2.49257785	      1.68194922	      4.08706488	      6.21302471	      4.64728099	     23.86130351	     14.33637721	      4.04456832	      3.05124140	      4.83240027	     19.62525634	     13.55699790	     14.48028634	     19.80741074	      1.70734289	      1.18267853	     10.13045503	      9.17879900	      2.80479655	      2.06086487	     14.33328102	      4.73660261	     10.35074763	      8.23672628	      6.05225517	      2.53261420	      8.52062471	      6.33378894	      6.78920896	      2.95840622	      3.50342196	      3.60324054	     10.14484369	      4.60418430	      8.85411461	      8.04810533	      1.69008090	      6.28334914	      4.60297760	      3.26054907	      2.74817820	      4.51914959	      4.42628343	      2.49257785	      1.73662366	      4.08706488	      6.21302471	      4.64728099	     23.86130351	     14.33637721	      4.04456832	      3.05124140	      4.83240027	     12.26381205	      7.38972600	      8.49514470	      9.12973638	     16.95317020	      7.87353049	     36.72890567	     44.62209757	      3.34430471	      3.46898623	      9.65739255	      5.04442326	     14.05687003	      2.21800340	      6.17979171	      1.94737329	     27.82981205	     27.82981205	     10.11155636	     10.11155636	     27.80341743	     27.80341743	     79.00698109	     67.58837544	     17.73657980	     -8.91490569	      1.93064503	     32.46211860	    -79.00698109	    -67.58837544	    -17.73657980	      2.25349855	     -2.40209973	     -0.99254939	    115.66527364	     47.56292242	      1.42681986	      0.43930809	     -2.46754148	     47.17948184	   -115.66527364	    -47.56292242	     -1.42681986	     -0.87100995	      2.15929725	     -1.90823827	    -23.69342322	    -23.75717430	      5.81111018	     -0.52886445	      0.45040541	     -0.31111797	     23.69342322	     23.75717430	     -5.81111018	      2.82488164	     -0.41854709	      9.80282762	      0.00000000	      0.00000000	      0.00000000	      0.00000000	      0.00000000	      0.00000000	      0.00000000	      0.00000000	      0.00000000	      0.00000000	      0.00000000	      0.00000000	     48.46838562	     15.82189204	    110.65914609	     36.15630014	      0.00000000	      0.00000000	      0.00000000	      0.00000000	      0.00000000	      0.00000000	      0.00000000	      0.00000000	      0.00000001	      0.00000000	     84.26488000	    -70.70660000	      0.00000000
